<svg xmlns="http://www.w3.org/2000/svg" width="200mm" height="200mm" viewBox="0 0 20000 20000" shape-rendering="geometricPrecision" text-rendering="geometricPrecision" image-rendering="optimizeQuality" fill-rule="evenodd" clip-rule="evenodd"><defs><style>.fil0{fill:#2c2e49;fill-rule:nonzero}</style></defs><g id="Camada_x0020_1"><path class="fil0" d="M6533 11114h-481l622-3512c47-292-38-396-339-396h-932c-302 0-424 66-650 283l-3475 3418c-226 217-264 330-320 640l-104 622c-47 292 28 395 330 395h2844l-160 933c-57 292 28 395 329 395h961c301 0 424-103 471-395l169-933h471c301 0 424-103 471-395l113-659c56-292-28-396-320-396zm-2242 0H2964l1601-1591-274 1591zM7755 9410l-367 2062c-264 1516 565 2562 2268 2562 1694 0 2786-848 3050-2355l367-2062c296-1680-752-2552-2240-2552-1704 0-2823 847-3078 2345zm3632-943l-393 1212c445 589 350 483 1122 1507l-117 489-1307-1078s-482 1494-493 1517l418 541-94 288-609-459-318-104-763 13 94-287 656-193c4-24 493-1517 493-1517l-1691 104 193-464c1227-375 1088-345 1795-559l393-1211c56-173 234-211 386-164 161 53 295 182 235 365zM18822 11114h-480l621-3512c47-292-37-396-339-396h-932c-301 0-424 66-650 283l-3475 3418c-226 217-263 330-320 640l-103 622c-48 292 28 395 329 395h2844l-160 933c-56 292 28 395 330 395h960c302 0 424-103 471-395l170-933h470c302 0 424-103 471-395l113-659c57-292-28-396-320-396zm-2241 0h-1328l1601-1591-273 1591z"/><path d="M14959 5989h-633c-49 0-67 17-76 64l-166 946c-9 47 4 64 53 64h645c49 0 69-17 76-64l24-137c9-49-4-64-51-64h-413l26-145h319c48 0 66-17 75-65l25-136c7-47-5-64-53-64h-319l24-134h399c47 0 67-17 76-65l24-136c7-47-6-64-55-64zm687 0h-431c-48 0-66 17-75 64l-167 946c-9 47 5 64 53 64h171c48 0 67-17 76-64l51-293h39c67 0 78 26 94 77l61 207c15 53 47 73 127 73h163c49 0 66-33 52-74l-90-259c-9-24-18-45-29-65 112-57 190-153 216-299 42-235-83-377-311-377zm2 363c-11 62-53 101-117 101h-163l36-199h162c65 0 94 38 82 98zm998-363h-431c-49 0-67 17-76 64l-166 946c-9 47 4 64 53 64h171c48 0 66-17 75-64l52-293h39c66 0 77 26 94 77l60 207c15 53 47 73 127 73h163c50 0 67-33 53-74l-91-259c-9-24-18-45-28-65 111-57 190-153 215-299 43-235-82-377-310-377zm1 363c-10 62-53 101-116 101h-164l37-199h162c65 0 93 38 81 98zm410 23l-48 273c-44 262 95 437 393 437 299 0 485-143 533-403l46-274c46-262-94-441-391-441-300 0-487 148-533 408zm631 1l-53 300c-17 95-87 145-191 145-106 0-157-50-141-145l53-300c17-95 87-145 192-145s156 50 140 145zm989-387h-431c-49 0-67 17-76 64l-166 946c-9 47 4 64 53 64h170c49 0 67-17 76-64l51-293h40c66 0 77 26 93 77l61 207c15 53 47 73 127 73h163c50 0 66-33 53-74l-91-259c-9-24-18-45-28-65 111-57 190-153 215-299 43-235-83-377-310-377zm1 363c-11 62-53 101-116 101h-164l37-199h161c65 0 94 38 82 98z" fill="#f60" fill-rule="nonzero"/></g></svg>