<svg xmlns="http://www.w3.org/2000/svg" width="200mm" height="200mm" viewBox="0 0 20000 20000" shape-rendering="geometricPrecision" text-rendering="geometricPrecision" image-rendering="optimizeQuality" fill-rule="evenodd" clip-rule="evenodd"><defs><style>.fil1{fill:#41210a}.fil2{fill:#feddbe}</style></defs><g id="Camada_x0020_1"><path d="M5189 9913l262-550c2944 659 5888 764 8918-944 408 2307 576 4630 599 6962-2619 362-5125 489-7590 530-1251-4507-860-5424-2189-5998z" fill="#e75e1c"/><path class="fil1" d="M7378 15911l7590-530c1494 191 1609 541 1295 1248l-360 1181c393-330 1043 2 909 343-63 158-214 153-366 148-375-12-709-74-1005-185-138-52-129-156-103-256l396-1274c87-289-41-465-430-475-2376 35-4863 141-7162 471-83 455-194 867-353 1202-160 339-278 379-616 313-435-85-874-213-1317-381 161 471 42 931-292 970-466-34-40-945 19-1418 569 49 1119 110 1482 287 8-548 113-1096 313-1644z"/><path class="fil2" d="M14837 12190c2038 906 2925 14 3132-1919 111-1039 941-662 798 148-417 2346-1331 3762-3879 2542-15-257-32-514-51-771zM5189 9913c-2038-906-2961 426-3168 2494-104 1040-886 670-797-148 300-2770 1680-4116 4227-2896l-262 550z"/><path class="fil1" d="M6672 3690c1889-4534 5725-99 8009-2376-431 3122-2591 4587-6726 4160-19 454-83 894-191 1321-547-446-1046 502-132 488-151 1055-767 1744-1702 2182-1089-3046-1868-5832 742-5775z"/><path class="fil2" d="M12803 4662c828 1130 1380 2370 1566 3757-2866 1616-5655 1609-8439 1046 936-438 1551-1127 1702-2182-914 14-415-934 132-488 108-427 172-867 191-1321 2128 220 3732-61 4848-812z"/><path class="fil1" d="M12836 8255c-491-806-2040-452-1969 473 344-695 1144-921 1969-473z"/><ellipse class="fil1" transform="matrix(1.34271 -.56812 .56812 1.34271 10712.5 6533.47)" rx="159" ry="232"/><ellipse class="fil1" transform="matrix(1.34271 -.56812 .56812 1.34271 12290.4 6272.08)" rx="159" ry="232"/></g></svg>